<svg width="16" height="14" viewBox="0 0 16 14" fill="none" xmlns="http://www.w3.org/2000/svg">
<path id="Vector" d="M13.9694 2.50119L6.18983 10.2876L3.29892 7.39664L4.26028 6.43528L6.18983 8.36483L13.008 1.54664L13.9694 2.50119ZM7.15119 12.6057C4.14437 12.6057 1.69664 10.158 1.69664 7.15119C1.69664 4.14437 4.14437 1.69664 7.15119 1.69664C8.22164 1.69664 9.22392 2.01028 10.0694 2.54892L11.058 1.56028C9.94664 0.789826 8.60346 0.333008 7.15119 0.333008C3.38755 0.333008 0.333008 3.38755 0.333008 7.15119C0.333008 10.9148 3.38755 13.9694 7.15119 13.9694C8.33074 13.9694 9.4421 13.6694 10.4103 13.1376L9.38755 12.1148C8.70574 12.4285 7.94892 12.6057 7.15119 12.6057ZM11.9239 9.19664H9.87846V10.5603H11.9239V12.6057H13.2876V10.5603H15.333V9.19664H13.2876V7.15119H11.9239V9.19664Z" fill="#198754"/>
</svg>
