<svg width="13" height="12" viewBox="0 0 13 12" fill="none" xmlns="http://www.w3.org/2000/svg">
<g id="IONIcon/P/person/default" clip-path="url(#clip0_881_4519)">
<path id="Vector" d="M8.2959 1.51359C7.83981 1.02117 7.20278 0.75 6.49965 0.75C5.79278 0.75 5.15364 1.01953 4.69966 1.50891C4.24075 2.00367 4.01716 2.67609 4.06966 3.40219C4.17372 4.83468 5.2638 6 6.49965 6C7.73551 6 8.82372 4.83492 8.92942 3.40265C8.98262 2.68312 8.75762 2.01211 8.2959 1.51359Z" fill="white"/>
<path id="Vector_2" d="M10.6246 11.249H2.37465C2.26666 11.2504 2.15972 11.2277 2.06161 11.1826C1.96349 11.1375 1.87667 11.0711 1.80746 10.9882C1.65511 10.8061 1.59371 10.5574 1.63918 10.3059C1.83699 9.20855 2.45433 8.28676 3.42464 7.63965C4.28668 7.0652 5.37863 6.74902 6.49964 6.74902C7.62066 6.74902 8.71261 7.06543 9.57464 7.63965C10.545 8.28652 11.1623 9.20832 11.3601 10.3057C11.4056 10.5571 11.3442 10.8058 11.1918 10.9879C11.1226 11.0709 11.0358 11.1373 10.9377 11.1825C10.8396 11.2277 10.7326 11.2504 10.6246 11.249V11.249Z" fill="white"/>
</g>
<defs>
<clipPath id="clip0_881_4519">
<rect width="12" height="12" fill="white" transform="translate(0.499756)"/>
</clipPath>
</defs>
</svg>
