<svg width="12" height="11" viewBox="0 0 12 11" fill="none" xmlns="http://www.w3.org/2000/svg">
<g id="Icon" clip-path="url(#clip0_881_4542)">
<path id="Vector" d="M6.66023 5.32489C6.67716 5.32491 6.69372 5.31992 6.70783 5.31056C6.72193 5.3012 6.73296 5.28788 6.73952 5.27227C6.74609 5.25667 6.7479 5.23947 6.74472 5.22284C6.74155 5.20621 6.73353 5.19089 6.72168 5.1788L5.0373 3.46607C5.02534 3.45391 5.01002 3.4456 4.99331 3.44218C4.97659 3.43875 4.95924 3.44039 4.94346 3.44686C4.92768 3.45333 4.91418 3.46436 4.90468 3.47853C4.89519 3.4927 4.89012 3.50938 4.89014 3.52644V5.06708C4.89014 5.13546 4.9173 5.20103 4.96565 5.24938C5.014 5.29773 5.07957 5.32489 5.14795 5.32489H6.66023Z" fill="#2D3748"/>
<path id="Vector_2" d="M4.48193 5.7334C4.39369 5.64634 4.32357 5.54266 4.27563 5.42834C4.22769 5.31402 4.20288 5.19134 4.20264 5.06738V3.09082H2.65576C2.29142 3.0919 1.94231 3.23711 1.68468 3.49474C1.42705 3.75237 1.28184 4.10148 1.28076 4.46582V9.27832C1.28076 9.64299 1.42563 9.99273 1.68349 10.2506C1.94135 10.5085 2.29109 10.6533 2.65576 10.6533H5.74951C6.11418 10.6533 6.46392 10.5085 6.72178 10.2506C6.97964 9.99273 7.12451 9.64299 7.12451 9.27832V6.01269H5.14795C5.02398 6.01252 4.90127 5.98774 4.78695 5.9398C4.67262 5.89185 4.56895 5.8217 4.48193 5.7334Z" fill="#2D3748"/>
<path id="Vector_3" d="M8.2417 2.57489H9.75398C9.77091 2.57491 9.78747 2.56992 9.80158 2.56056C9.81568 2.5512 9.82671 2.53788 9.83327 2.52227C9.83984 2.50667 9.84164 2.48947 9.83847 2.47284C9.8353 2.45621 9.82728 2.44089 9.81543 2.4288L8.13105 0.716067C8.11908 0.703913 8.10377 0.695596 8.08706 0.692175C8.07034 0.688754 8.05299 0.690385 8.03721 0.696859C8.02143 0.703334 8.00793 0.714359 7.99843 0.728531C7.98894 0.742702 7.98387 0.759379 7.98389 0.776438V2.31708C7.98389 2.38546 8.01105 2.45103 8.0594 2.49938C8.10775 2.54773 8.17332 2.57489 8.2417 2.57489Z" fill="#2D3748"/>
<path id="Vector_4" d="M8.2417 3.26269C7.99158 3.26078 7.75224 3.16058 7.57537 2.98371C7.39851 2.80684 7.2983 2.5675 7.29639 2.31738V0.34082H4.97607C4.63432 0.341218 4.30667 0.477158 4.06501 0.718818C3.82335 0.960477 3.68741 1.28812 3.68701 1.62988V2.40332H4.59193C4.70744 2.40378 4.82171 2.42706 4.92819 2.47182C5.03467 2.51658 5.13126 2.58194 5.2124 2.66414L7.55764 5.0489C7.72125 5.21491 7.81261 5.43887 7.8118 5.67195V8.59082H8.95154C9.65 8.59082 10.218 8.01246 10.218 7.30176V3.26269H8.2417Z" fill="black"/>
</g>
<defs>
<clipPath id="clip0_881_4542">
<rect width="11" height="11" fill="white" transform="translate(0.249512 -0.00292969)"/>
</clipPath>
</defs>
</svg>
