<svg width="13" height="13" viewBox="0 0 13 13" fill="none" xmlns="http://www.w3.org/2000/svg">
<g id="IONIcon/N/notifications/default">
<path id="Vector" d="M10.8147 8.49945C10.7758 8.45257 10.7376 8.4057 10.7001 8.36046C10.1844 7.73679 9.8725 7.36039 9.8725 5.59484C9.8725 4.68078 9.65382 3.93078 9.22281 3.36828C8.905 2.95273 8.47539 2.6375 7.90914 2.40453C7.90185 2.40048 7.89534 2.39516 7.88992 2.38883C7.68625 1.7068 7.1289 1.25 6.50031 1.25C5.87172 1.25 5.31461 1.7068 5.11094 2.38812C5.1055 2.39422 5.09908 2.39937 5.09195 2.40336C3.77055 2.94734 3.12836 3.99101 3.12836 5.59414C3.12836 7.36039 2.81688 7.73679 2.30078 8.35976C2.26328 8.405 2.22508 8.45093 2.18617 8.49874C2.08567 8.61995 2.022 8.7674 2.00268 8.92366C1.98337 9.07992 2.00922 9.23844 2.07719 9.38046C2.2218 9.68515 2.53 9.87429 2.8818 9.87429H10.1214C10.4716 9.87429 10.7777 9.68538 10.9227 9.3821C10.991 9.24004 11.0171 9.0814 10.9979 8.92496C10.9788 8.76852 10.9152 8.62085 10.8147 8.49945V8.49945Z" fill="white"/>
<path id="Vector_2" d="M6.5002 11.75C6.83888 11.7497 7.17117 11.6578 7.46183 11.4839C7.75249 11.3101 7.99068 11.0608 8.15114 10.7626C8.1587 10.7483 8.16243 10.7323 8.16198 10.7161C8.16152 10.7 8.15689 10.6842 8.14854 10.6703C8.14019 10.6565 8.1284 10.645 8.11432 10.6371C8.10024 10.6292 8.08434 10.625 8.06817 10.625H4.9327C4.91651 10.6249 4.90058 10.6291 4.88647 10.637C4.87235 10.6449 4.86053 10.6564 4.85215 10.6702C4.84377 10.6841 4.83913 10.6999 4.83866 10.7161C4.8382 10.7322 4.84193 10.7483 4.8495 10.7626C5.00994 11.0608 5.24809 11.31 5.5387 11.4839C5.82932 11.6577 6.16156 11.7497 6.5002 11.75Z" fill="white"/>
</g>
</svg>
