<svg xmlns:dc="http://purl.org/dc/elements/1.1/" xmlns:cc="http://creativecommons.org/ns#" xmlns:rdf="http://www.w3.org/1999/02/22-rdf-syntax-ns#" xmlns:svg="http://www.w3.org/2000/svg" xmlns="http://www.w3.org/2000/svg" viewBox="0 0 377.94666 97.053329" height="97.053329" width="377.94666" xml:space="preserve" id="svg2" version="1.1"><metadata id="metadata8"><rdf:rdf><cc:work rdf:about=""><dc:format>image/svg+xml</dc:format><dc:type rdf:resource="http://purl.org/dc/dcmitype/StillImage"></dc:type></cc:work></rdf:rdf></metadata><defs id="defs6"></defs><g transform="matrix(1.3333333,0,0,-1.3333333,0,97.053333)" id="g10"><g transform="scale(0.1)" id="g12"><path id="path16" style="fill: rgb(125, 191, 78); fill-opacity: 1; fill-rule: nonzero; stroke: none; opacity: 1;" d="m 45.8672,179.102 c 0,44.902 -0.3867,86.132 0.4219,127.339 0.1211,5.883 4.9492,12.75 9.4804,17.313 51.9685,52.508 104.1485,104.84 156.6685,156.84 15.113,14.969 58.96,13.828 74.472,-0.922 36.25,-34.527 36.25,-34.5 71.129,0.332 48.879,48.82 97.711,97.699 146.711,146.43 20.43,20.347 20.57,20.16 1.828,41.16 -1.769,1.969 -3.359,4.168 -6.898,8.57 56.359,15.289 110.879,30.109 167.98,45.649 -15.121,-56.899 -29.543,-111.18 -43.851,-165.098 -2.61,0 -4.348,-0.57 -5.219,0.098 -26.242,19.039 -26.57,19.39 -49.152,-2.938 C 500.23,485.402 431.367,416.543 362.211,348.023 c -18.422,-18.25 -64.391,-17.609 -82.363,0.809 -30.618,31.391 -26.321,38.07 -64.469,-1.059 -52.102,-53.449 -105.328,-105.75 -158.0782,-158.519 -2.8203,-2.77 -5.8516,-5.172 -11.4336,-10.152" data-index="1"></path><path id="path18" style="fill:#ffffff;fill-opacity:1;fill-rule:nonzero;stroke:none" d="m 46.4688,449.563 c 0,40.578 -0.418,81.148 0.4804,121.699 0.1211,5.82 5.6094,12.379 10.1992,17.031 26.6329,27.051 53.5626,53.84 80.8826,80.199 4.617,4.43 11.641,9.02 17.578,9.051 89.039,0.57 178.082,0.391 273.45,0.391 -10.02,-11.071 -16.2,-18.512 -23.071,-25.313 -19.609,-19.41 -38.867,-39.289 -59.648,-57.41 -7.461,-6.5 -18.711,-11.66 -28.461,-12.051 -34.488,-1.398 -69.098,-1.308 -103.609,-0.137 -17.969,0.59 -31.282,-4.562 -43.848,-17.671 C 136.949,530.504 102.25,496.852 68,462.754 c -5.25,-5.211 -10.7617,-10.16 -16.1289,-15.262 -1.832,0.711 -3.6016,1.379 -5.4023,2.071" data-index="2"></path><path id="path20" style="fill:#ffffff;fill-opacity:1;fill-rule:nonzero;stroke:none" d="m 428.938,302.16 c 0,-40.582 0.417,-81.152 -0.481,-121.699 -0.121,-5.82 -5.609,-12.391 -10.191,-17.043 C 391.625,136.367 364.695,109.59 337.375,83.2188 332.758,78.7891 325.734,74.1992 319.797,74.168 230.766,73.6172 141.715,73.7773 46.3555,73.7773 56.3672,84.8594 62.5469,92.3008 69.418,99.0898 c 19.6093,19.4102 38.867,39.2892 59.648,57.4182 7.469,6.492 18.711,11.672 28.461,12.051 34.489,1.402 69.098,1.308 103.618,0.14 17.96,-0.601 31.281,4.559 43.839,17.668 33.473,34.844 68.172,68.5 102.422,102.613 5.25,5.2 10.762,10.149 16.129,15.25 1.832,-0.722 3.633,-1.39 5.403,-2.07" data-index="3"></path><path id="path22" style="fill: rgb(255, 255, 255); fill-opacity: 1; fill-rule: nonzero; stroke: none; opacity: 1;" d="m 945.621,539.973 v -88.2 H 841.449 V 139.07 h -92.59 V 451.773 H 644.691 v 88.2" data-index="4"></path><path id="path24" style="fill:#ffffff;fill-opacity:1;fill-rule:nonzero;stroke:none" d="m 753.863,144.074 h 82.59 v 307.699 c 0,2.758 2.238,5 5,5 h 99.168 v 78.2 h -290.93 v -78.2 h 99.172 c 2.758,0 5,-2.242 5,-5 z m 87.59,-10 h -92.59 c -2.761,0 -5,2.25 -5,5 v 307.699 h -99.172 c -2.757,0 -5,2.231 -5,5 v 88.2 c 0,2.761 2.243,5 5,5 h 300.93 c 2.762,0 5,-2.239 5,-5 v -88.2 c 0,-2.769 -2.238,-5 -5,-5 H 846.453 V 139.074 c 0,-2.75 -2.23,-5 -5,-5" data-index="5"></path><path id="path26" style="fill:#ffffff;fill-opacity:1;fill-rule:nonzero;stroke:none" d="m 1104.77,425.43 h 86.8 V 139.07 h -86.8 v 26.942 c -17.36,-23.289 -44.95,-34.949 -82.75,-34.949 -30.875,0 -56.633,10.488 -77.262,31.5 -20.641,21 -30.961,50.007 -30.961,87.046 V 425.43 H 1000.6 V 262.211 c 0,-16.809 4.72,-29.691 14.18,-38.648 9.45,-8.981 21.5,-13.473 36.17,-13.473 16.58,0 29.69,4.961 39.35,14.89 9.64,9.93 14.47,24.629 14.47,44.102" data-index="6"></path><path id="path28" style="fill:#ffffff;fill-opacity:1;fill-rule:nonzero;stroke:none" d="M 918.793,420.43 V 249.609 c 0,-35.519 9.941,-63.609 29.531,-83.546 19.551,-19.903 44.352,-30 73.696,-30 35.96,0 62.45,11.078 78.73,32.917 1.29,1.731 3.54,2.461 5.59,1.762 2.04,-0.672 3.43,-2.59 3.43,-4.73 V 144.07 h 76.8 v 276.36 h -76.8 V 269.082 c 0,-20.711 -5.34,-36.73 -15.89,-47.59 -10.58,-10.871 -25.02,-16.402 -42.93,-16.402 -15.91,0 -29.24,4.992 -39.61,14.82 -10.45,9.91 -15.735,24.141 -15.735,42.301 V 420.43 Z M 1022.02,126.063 c -32.137,0 -59.325,11.109 -80.836,32.988 -21.489,21.859 -32.391,52.332 -32.391,90.558 V 425.43 c 0,2.761 2.242,5 5,5 h 86.817 c 2.75,0 5,-2.239 5,-5 V 262.211 c 0,-15.52 4.11,-26.988 12.6,-35.039 8.58,-8.133 19.28,-12.082 32.74,-12.082 15.32,0 27.01,4.371 35.76,13.383 8.67,8.918 13.06,22.59 13.06,40.609 V 425.43 c 0,2.761 2.23,5 5,5 h 86.8 c 2.77,0 5,-2.239 5,-5 V 139.07 c 0,-2.757 -2.23,-5 -5,-5 h -86.8 c -2.77,0 -5,2.243 -5,5 v 13.672 c -18.3,-17.711 -44.39,-26.679 -77.75,-26.679" data-index="7"></path><path id="path30" style="fill: rgb(255, 255, 255); fill-opacity: 1; fill-rule: nonzero; opacity: 1;" d="m 1319.18,465.813 c -10.23,-10.129 -22.48,-15.18 -36.75,-15.18 -14.29,0 -26.54,5.051 -36.75,15.18 -10.23,10.109 -15.34,22.23 -15.34,36.371 0,14.117 5.11,26.238 15.34,36.359 10.21,10.098 22.46,15.18 36.75,15.18 14.27,0 26.52,-5.082 36.75,-15.18 10.21,-10.121 15.34,-22.242 15.34,-36.359 0,-14.141 -5.13,-26.262 -15.34,-36.371 M 1239.02,139.07 v 286.364 h 86.82 V 139.07 c 0,-44.6677 -10.82,-76.9177 -32.41,-96.777 -21.61,-19.8516 -55.18,-28.4219 -100.7,-25.7813 v 82.4805 c 16.2,-0.7617 27.97,2.0118 35.29,8.3008 7.34,6.301 11,16.898 11,31.777" data-index="8"></path><path id="path32" style="fill: rgb(255, 255, 255); fill-opacity: 1; fill-rule: nonzero; opacity: 1;" d="m 1282.43,548.723 c -13.01,0 -23.88,-4.493 -33.23,-13.731 -9.32,-9.23 -13.85,-19.961 -13.85,-32.808 0,-12.871 4.53,-23.614 13.85,-32.821 9.32,-9.23 20.19,-13.73 33.23,-13.73 13.03,0 23.9,4.5 33.23,13.73 9.32,9.219 13.85,19.957 13.85,32.821 0,12.839 -4.53,23.57 -13.85,32.808 -9.35,9.238 -20.22,13.731 -33.23,13.731 m 0,-103.09 c -15.59,0 -29.14,5.597 -40.27,16.629 -11.15,11.019 -16.81,24.461 -16.81,39.922 0,15.437 5.66,28.859 16.81,39.918 11.17,11.019 24.71,16.621 40.27,16.621 15.55,0 29.1,-5.602 40.26,-16.621 11.17,-11.071 16.82,-24.489 16.82,-39.918 0,-15.454 -5.65,-28.883 -16.81,-39.922 -11.14,-11.032 -24.69,-16.629 -40.27,-16.629 m -84.7,-424.3596 c 41.58,-1.7617 72.59,6.5899 92.31,24.7188 20.43,18.7695 30.79,50.0781 30.79,93.0778 v 281.364 h -76.8 V 139.07 c 0,-16.34 -4.29,-28.297 -12.74,-35.558 -7.55,-6.4886 -18.69,-9.5901 -33.56,-9.6292 z m 10.4,-10.2226 c -5.07,0 -10.3,0.1601 -15.69,0.4726 -2.64,0.1602 -4.71,2.3594 -4.71,4.9883 v 82.4805 c 0,1.3708 0.56,2.6798 1.55,3.6288 0.99,0.942 2.31,1.539 3.69,1.359 14.77,-0.687 25.51,1.692 31.8,7.102 6.14,5.301 9.26,14.699 9.26,27.988 v 286.364 c 0,2.757 2.23,5 5,5 h 86.8 c 2.77,0 5,-2.243 5,-5 V 139.07 c 0,-45.9098 -11.44,-79.7067 -34.02,-100.4567 -19.94,-18.3203 -49.73,-27.5625 -88.68,-27.5625" data-index="9"></path><path id="path34" style="fill:#ffffff;fill-opacity:1;fill-rule:nonzero;stroke:none" d="m 1370.39,425.43 h 86.8008 V 139.071 H 1370.39 Z m 80.15,40.379 c -10.23,-10.129 -22.48,-15.168 -36.75,-15.168 -14.28,0 -26.53,5.039 -36.75,15.168 -10.22,10.113 -15.33,22.23 -15.33,36.371 0,14.121 5.11,26.242 15.33,36.371 10.22,10.09 22.47,15.168 36.75,15.168 14.27,0 26.52,-5.078 36.75,-15.168 10.22,-10.129 15.34,-22.25 15.34,-36.371 0,-14.141 -5.12,-26.258 -15.34,-36.371" data-index="10"></path><path id="path36" style="fill:#ffffff;fill-opacity:1;fill-rule:nonzero;stroke:none" d="m 1413.79,548.723 c -13.01,0 -23.88,-4.493 -33.23,-13.731 -9.32,-9.23 -13.85,-19.961 -13.85,-32.808 0,-12.871 4.53,-23.614 13.85,-32.821 9.32,-9.23 20.19,-13.73 33.23,-13.73 13.03,0 23.9,4.5 33.23,13.73 9.32,9.219 13.85,19.957 13.85,32.821 0,12.839 -4.53,23.57 -13.85,32.808 -9.35,9.238 -20.22,13.731 -33.23,13.731 m 0,-103.09 c -15.59,0 -29.14,5.597 -40.27,16.629 -11.15,11.019 -16.81,24.461 -16.81,39.922 0,15.437 5.66,28.859 16.81,39.918 11.17,11.019 24.71,16.621 40.27,16.621 15.55,0 29.1,-5.602 40.26,-16.621 11.17,-11.071 16.82,-24.489 16.82,-39.918 0,-15.454 -5.65,-28.891 -16.82,-39.922 -11.13,-11.032 -24.68,-16.629 -40.26,-16.629 m -38.4,-301.563 h 76.8 v 276.364 h -76.8 z m 81.8,-10 h -86.8 c -2.76,0 -5,2.243 -5,5 v 286.364 c 0,2.757 2.24,5 5,5 h 86.8 c 2.77,0 5,-2.243 5,-5 V 139.07 c 0,-2.757 -2.23,-5 -5,-5" data-index="11"></path><path id="path38" style="fill:#ffffff;fill-opacity:1;fill-rule:nonzero;stroke:none" d="M 1671.32,342.961 H 1611.7 V 241.59 c 0,-11.449 4.64,-18.711 13.9,-21.762 9.26,-3.058 24.49,-4.008 45.72,-2.867 V 139.07 c -55.19,-5.718 -93.38,-0.468 -114.58,15.77 -21.23,16.219 -31.85,45.129 -31.85,86.75 v 101.371 h -46.28 v 82.469 h 46.28 v 54.41 l 86.81,25.769 V 425.43 h 59.62" data-index="12"></path><path id="path40" style="fill:#ffffff;fill-opacity:1;fill-rule:nonzero;stroke:none" d="m 1483.61,347.961 h 41.28 c 2.77,0 5,-2.242 5,-5 V 241.59 c 0,-39.781 10.06,-67.629 29.88,-82.789 19.5,-14.922 55.34,-20.063 106.54,-15.199 v 68.117 c -19.33,-0.719 -33.17,0.351 -42.29,3.371 -7.89,2.609 -17.32,9.32 -17.32,26.5 v 101.371 c 0,2.758 2.25,5 5,5 h 54.61 v 72.469 h -54.61 c -2.75,0 -5,2.242 -5,5 v 73.48 l -76.81,-22.808 V 425.43 c 0,-2.758 -2.23,-5 -5,-5 h -41.28 z m 147.63,-216.152 c -35.34,0 -60.88,6.312 -77.54,19.043 -22.43,17.136 -33.81,47.687 -33.81,90.738 v 96.371 h -41.28 c -2.77,0 -5,2.25 -5,5 v 82.469 c 0,2.761 2.23,5 5,5 h 41.28 v 49.41 c 0,2.211 1.47,4.16 3.58,4.789 l 86.82,25.769 c 1.5,0.43 3.14,0.153 4.41,-0.789 1.25,-0.937 2,-2.418 2,-4 V 430.43 h 54.61 c 2.76,0 5,-2.239 5,-5 v -82.469 c 0,-2.75 -2.24,-5 -5,-5 H 1616.7 V 241.59 c 0,-12.16 5.98,-15.512 10.45,-17.012 8.62,-2.848 23.39,-3.726 43.89,-2.629 1.39,0.16 2.73,-0.418 3.71,-1.34 0.99,-0.961 1.56,-2.269 1.56,-3.648 V 139.07 c 0,-2.558 -1.93,-4.691 -4.47,-4.968 -14.75,-1.532 -28.28,-2.293 -40.6,-2.293" data-index="13"></path><path id="path42" style="fill:#ffffff;fill-opacity:1;fill-rule:nonzero;stroke:none" d="m 1894.1,425.43 h 86.81 V 139.07 h -86.81 v 26.942 c -17.36,-23.289 -44.95,-34.949 -82.75,-34.949 -30.87,0 -56.63,10.488 -77.26,31.5 -20.64,21 -30.96,50.007 -30.96,87.046 V 425.43 h 86.8 V 262.211 c 0,-16.809 4.72,-29.691 14.18,-38.648 9.45,-8.981 21.5,-13.473 36.17,-13.473 16.58,0 29.7,4.961 39.35,14.89 9.64,9.93 14.47,24.629 14.47,44.102" data-index="14"></path><path id="path44" style="fill:#ffffff;fill-opacity:1;fill-rule:nonzero;stroke:none" d="M 1708.13,420.43 V 249.609 c 0,-35.519 9.94,-63.609 29.53,-83.546 19.54,-19.903 44.36,-30 73.68,-30 35.98,0 62.46,11.078 78.75,32.917 1.29,1.731 3.55,2.461 5.59,1.762 2.03,-0.672 3.43,-2.59 3.43,-4.73 V 144.07 h 76.8 v 276.36 h -76.8 V 269.082 c 0,-20.711 -5.36,-36.73 -15.88,-47.59 -10.59,-10.871 -25.03,-16.402 -42.94,-16.402 -15.91,0 -29.24,4.992 -39.61,14.82 -10.45,9.91 -15.73,24.141 -15.73,42.301 V 420.43 Z m 103.21,-294.367 c -32.13,0 -59.3,11.109 -80.82,32.988 -21.48,21.859 -32.39,52.332 -32.39,90.558 V 425.43 c 0,2.761 2.25,5 5,5 h 86.82 c 2.75,0 5,-2.239 5,-5 V 262.211 c 0,-15.52 4.12,-26.988 12.6,-35.039 8.59,-8.133 19.27,-12.082 32.74,-12.082 15.32,0 27.01,4.371 35.76,13.383 8.66,8.918 13.06,22.59 13.06,40.609 V 425.43 c 0,2.761 2.23,5 5,5 h 86.8 c 2.77,0 5,-2.239 5,-5 V 139.07 c 0,-2.757 -2.23,-5 -5,-5 h -86.8 c -2.77,0 -5,2.243 -5,5 v 13.672 c -18.29,-17.711 -44.4,-26.679 -77.77,-26.679" data-index="15"></path><path id="path46" style="fill: rgb(255, 255, 255); fill-opacity: 1; fill-rule: nonzero; opacity: 1;" d="m 2349.54,433.449 c 33.18,0 59.79,-10.793 79.86,-32.359 20.06,-21.57 30.1,-50.313 30.1,-86.184 V 139.078 h -86.82 v 168.371 c 0,14.528 -3.56,25.957 -10.7,34.367 -7.14,8.391 -17.46,12.602 -30.97,12.602 -14.27,0 -25.36,-4.781 -33.26,-14.32 -7.92,-9.551 -11.87,-22.711 -11.87,-39.52 v -161.5 h -86.8 v 168.371 c 0,14.528 -3.57,25.957 -10.71,34.367 -7.14,8.391 -17.46,12.602 -30.96,12.602 -14.28,0 -25.37,-4.781 -33.28,-14.32 -7.91,-9.551 -11.87,-22.711 -11.87,-39.52 v -161.5 h -86.79 V 425.43 h 86.79 v -26.34 c 15.82,22.898 41.67,34.359 77.56,34.359 33.56,0 58.83,-12.601 75.81,-37.793 17.74,25.192 45.72,37.793 83.91,37.793" data-index="16"></path><path id="path48" style="fill: rgb(255, 255, 255); fill-opacity: 1; fill-rule: nonzero; opacity: 1;" d="m 2377.7,144.074 h 76.8 v 170.821 c 0,34.418 -9.68,62.277 -28.75,82.777 -19,20.422 -44.62,30.769 -76.2,30.769 -36.82,0 -62.92,-11.66 -79.84,-35.668 -0.94,-1.339 -2.21,-2.281 -4.14,-2.121 -1.62,0.02 -3.16,0.84 -4.09,2.211 -16.14,23.942 -39.57,35.578 -71.66,35.578 -34.44,0 -58.48,-10.519 -73.43,-32.187 -1.25,-1.801 -3.51,-2.551 -5.6,-1.941 -2.09,0.66 -3.52,2.589 -3.52,4.781 v 21.34 h -76.81 v -276.36 h 76.81 v 156.5 c 0,17.91 4.39,32.289 13.02,42.719 8.87,10.691 21.35,16.121 37.12,16.121 14.97,0 26.66,-4.832 34.77,-14.34 7.89,-9.32 11.91,-21.972 11.91,-37.621 V 144.074 h 76.79 v 156.5 c 0,17.918 4.39,32.297 13.01,42.719 8.88,10.691 21.36,16.121 37.13,16.121 14.96,0 26.66,-4.832 34.78,-14.34 7.9,-9.32 11.9,-21.98 11.9,-37.621 z m 81.8,-10 h -86.8 c -2.77,0 -5,2.25 -5,5 v 168.379 c 0,13.211 -3.2,23.68 -9.54,31.129 -6.2,7.301 -15.09,10.832 -27.14,10.832 -12.82,0 -22.45,-4.09 -29.41,-12.512 -7.11,-8.57 -10.73,-20.8 -10.73,-36.328 v -161.5 c 0,-2.75 -2.22,-5 -5,-5 h -86.79 c -2.79,0 -5,2.25 -5,5 v 168.379 c 0,13.211 -3.23,23.692 -9.52,31.129 -6.23,7.301 -15.09,10.832 -27.16,10.832 -12.84,0 -22.45,-4.09 -29.43,-12.512 -7.12,-8.578 -10.71,-20.8 -10.71,-36.328 v -161.5 c 0,-2.75 -2.25,-5 -5,-5 h -86.81 c -2.75,0 -5,2.25 -5,5 v 286.36 c 0,2.757 2.25,5 5,5 h 86.81 c 2.75,0 5,-2.243 5,-5 v -12.52 c 16.91,16.949 41.25,25.527 72.55,25.527 32.61,0 58.09,-11.57 75.91,-34.41 18.77,22.84 46.91,34.41 83.82,34.41 34.47,0 62.54,-11.418 83.5,-33.949 20.86,-22.418 31.45,-52.57 31.45,-89.597 V 139.074 c 0,-2.75 -2.25,-5 -5,-5" data-index="17"></path><path id="path50" style="fill:#ffffff;fill-opacity:1;fill-rule:nonzero;stroke:none" d="m 2575.81,312.031 h 124.41 c -8.47,30.18 -28.92,45.242 -61.32,45.242 -33.59,0 -54.6,-15.062 -63.09,-45.242 m 1.74,-64.14 c 10.03,-26.731 33.16,-40.09 69.43,-40.09 23.54,0 42.05,7.25 55.57,21.762 l 69.43,-39.512 c -28.54,-39.34 -70.58,-58.988 -126.14,-58.988 -48.61,0 -87.49,14.32 -116.61,42.949 -29.13,28.64 -43.69,64.711 -43.69,108.242 0,43.148 14.35,79.129 43.1,107.949 28.73,28.828 65.7,43.25 110.82,43.25 42.04,0 77.06,-14.422 105.03,-43.25 27.97,-28.82 41.96,-64.801 41.96,-107.949 0,-12.223 -1.16,-23.684 -3.46,-34.363" data-index="18"></path><path id="path52" style="fill:#ffffff;fill-opacity:1;fill-rule:nonzero;stroke:none" d="m 2582.7,317.031 h 110.64 c -8.77,23.699 -26.68,35.242 -54.45,35.242 -28.87,0 -47.3,-11.543 -56.19,-35.242 m 117.53,-10 h -124.41 c -1.59,0 -3.05,0.731 -4,1.981 -0.96,1.25 -1.25,2.859 -0.84,4.379 9.13,32.441 31.98,48.882 67.91,48.882 34.77,0 57.02,-16.441 66.15,-48.882 0.42,-1.52 0.12,-3.129 -0.83,-4.379 -0.94,-1.25 -2.42,-1.981 -3.98,-1.981 m -60.75,121.422 c -43.59,0 -79.66,-14.062 -107.3,-41.769 -27.63,-27.731 -41.66,-62.84 -41.66,-104.43 0,-41.934 14.21,-77.141 42.21,-104.66 28.02,-27.563 66.07,-41.531 113.09,-41.531 51.47,0 91.38,17.64 118.75,52.449 l -61.16,34.801 c -14.16,-13.602 -33.11,-20.512 -56.41,-20.512 -38.41,0 -63.34,14.582 -74.12,43.332 -0.58,1.527 -0.4,3.258 0.55,4.609 0.95,1.352 2.46,2.149 4.11,2.149 h 201.35 c 1.7,9.203 2.57,19.05 2.57,29.363 0,41.598 -13.64,76.726 -40.55,104.469 -26.86,27.687 -60.98,41.73 -101.43,41.73 m 6.34,-302.39 c -49.73,0 -90.14,14.929 -120.09,44.39 -29.98,29.469 -45.21,67.09 -45.21,111.801 0,44.316 15,81.828 44.57,111.488 29.57,29.668 68.07,44.711 114.39,44.711 43.25,0 79.79,-15.062 108.59,-44.762 28.81,-29.668 43.39,-67.16 43.39,-111.437 0,-12.512 -1.21,-24.422 -3.58,-35.422 -0.5,-2.301 -2.54,-3.941 -4.9,-3.941 h -197.75 c 10.48,-20.231 30.75,-30.09 61.77,-30.09 22.27,0 39.25,6.59 51.88,20.172 1.58,1.711 4.14,2.078 6.12,0.929 l 69.46,-39.511 c 1.25,-0.7 2.13,-1.899 2.42,-3.289 0.28,-1.372 0,-2.84 -0.84,-3.989 -29.4,-40.511 -73.2,-61.05 -130.22,-61.05" data-index="19"></path></g></g></svg>