<svg width="15" height="16" viewBox="0 0 15 16" fill="none" xmlns="http://www.w3.org/2000/svg">
<g id="IONIcon/B/build/default">
<path id="Vector" d="M13.7568 4.03136C13.7231 3.96571 13.6743 3.90896 13.6144 3.86574C13.5546 3.82251 13.4854 3.79403 13.4125 3.7826C13.3395 3.77118 13.2649 3.77715 13.1948 3.80001C13.1246 3.82287 13.0608 3.86199 13.0086 3.91417L11.2086 5.71534C11.1202 5.80242 11.0011 5.85123 10.8771 5.85123C10.753 5.85123 10.6339 5.80242 10.5456 5.71534L9.76745 4.93604C9.72391 4.89252 9.68938 4.84084 9.66581 4.78396C9.64225 4.72708 9.63012 4.66612 9.63012 4.60455C9.63012 4.54298 9.64225 4.48202 9.66581 4.42514C9.68938 4.36826 9.72391 4.31659 9.76745 4.27306L11.5598 2.48038C11.6136 2.42666 11.6534 2.36068 11.676 2.28812C11.6986 2.21557 11.7032 2.13861 11.6894 2.06389C11.6756 1.98917 11.6439 1.91892 11.5969 1.85918C11.5499 1.79945 11.4892 1.75203 11.4198 1.72101V1.72101C10.066 1.11573 8.37614 1.43155 7.31062 2.48917C6.40534 3.388 6.13552 4.79249 6.57087 6.34259C6.59434 6.42525 6.59448 6.51279 6.57126 6.59553C6.54804 6.67826 6.50238 6.75296 6.43933 6.81134L1.56199 11.2659C1.37198 11.4365 1.21872 11.644 1.11155 11.8758C1.00439 12.1076 0.945566 12.3588 0.938673 12.6141C0.931781 12.8693 0.976963 13.1233 1.07146 13.3605C1.16597 13.5978 1.3078 13.8132 1.48833 13.9938C1.66885 14.1745 1.88428 14.3164 2.12146 14.411C2.35865 14.5056 2.61262 14.5509 2.86788 14.5441C3.12315 14.5373 3.37436 14.4786 3.60619 14.3716C3.83801 14.2645 4.0456 14.1113 4.21628 13.9214L8.71862 9.03321C8.77617 8.97097 8.8496 8.92561 8.93101 8.90202C9.01243 8.87843 9.09873 8.87749 9.18064 8.89932C9.62195 9.02024 10.0772 9.08298 10.5347 9.08595C11.5133 9.08595 12.3719 8.76925 12.9913 8.15899C14.1383 7.02901 14.3132 5.11241 13.7568 4.03136ZM2.91521 13.6006C2.72226 13.6217 2.52753 13.5823 2.35789 13.488C2.18826 13.3937 2.05208 13.249 1.96815 13.074C1.88423 12.899 1.85669 12.7022 1.88934 12.5109C1.922 12.3196 2.01323 12.1431 2.15045 12.0058C2.28768 11.8686 2.46412 11.7773 2.65544 11.7445C2.84676 11.7118 3.04351 11.7393 3.21856 11.8232C3.3936 11.907 3.5383 12.0431 3.63268 12.2128C3.72706 12.3824 3.76648 12.5771 3.74548 12.77C3.72238 12.9823 3.62749 13.1804 3.47651 13.3314C3.32553 13.4825 3.12751 13.5774 2.91521 13.6006V13.6006Z" fill="#198754"/>
</g>
</svg>
